<svg xmlns="http://www.w3.org/2000/svg" width="512" height="512" viewBox="0 0 512 512">
  <defs>
    <path id="topArc" d="M 88 256 A 168 168 0 0 1 424 256"/>
    <path id="bottomArc" d="M 92 325 A 178 178 0 0 0 420 325"/>
  </defs>
  <rect width="512" height="512" fill="#FCFBF8"/>
  <g fill="none" stroke="#061B6F" stroke-linecap="round">
    <circle cx="256" cy="256" r="219" stroke-width="10"/>
    <circle cx="256" cy="256" r="202" stroke-width="4"/>
    <circle cx="256" cy="256" r="122" stroke-width="5"/>
  </g>
  <g fill="#061B6F" font-family="Arial Narrow, Arial, sans-serif" font-weight="800" text-anchor="middle">
    <text font-size="28" letter-spacing="1.2"><textPath href="#topArc" startOffset="50%" dy="2">ASGROUP DIGITAL PVT LTD</textPath></text>
    <text x="256" y="229" font-size="22" letter-spacing="1">ASGROUP DIGITAL</text>
    <text x="256" y="260" font-size="28" letter-spacing="2">PVT LTD</text>
    <text font-size="38" letter-spacing="3"><textPath href="#bottomArc" startOffset="50%" dy="36">DIRECTOR</textPath></text>
  </g>
  <g fill="#061B6F">
    <path d="M112 266l9 21 23 2-17 15 5 23-20-12-20 12 5-23-17-15 23-2z"/>
    <path d="M400 266l9 21 23 2-17 15 5 23-20-12-20 12 5-23-17-15 23-2z"/>
  </g>
  <g stroke="#061B6F" stroke-width="4" stroke-linecap="round">
    <path d="M205 195h102"/>
    <path d="M205 288h102"/>
  </g>
</svg>
